<mxfile host="app.diagrams.net" agent="Mozilla/5.0 (Windows NT 10.0; Win64; x64) AppleWebKit/537.36 (KHTML, like Gecko) Chrome/127.0.0.0 Safari/537.36 Edg/127.0.0.0" version="24.7.7">
  <diagram name="Trang-1" id="wLLnCH-KNRTzPOLZWYIK">
    <mxGraphModel dx="1869" dy="614" grid="1" gridSize="10" guides="1" tooltips="1" connect="1" arrows="1" fold="1" page="1" pageScale="1" pageWidth="827" pageHeight="1169" math="0" shadow="0">
      <root>
        <mxCell id="0" />
        <mxCell id="1" parent="0" />
        <mxCell id="xp5RyCpLHhrMqk-tIYWW-1" value="" style="edgeStyle=orthogonalEdgeStyle;rounded=0;orthogonalLoop=1;jettySize=auto;html=1;entryX=0.25;entryY=0;entryDx=0;entryDy=0;strokeColor=#FF0000;" edge="1" parent="1" source="xp5RyCpLHhrMqk-tIYWW-2" target="xp5RyCpLHhrMqk-tIYWW-26">
          <mxGeometry relative="1" as="geometry" />
        </mxCell>
        <mxCell id="xp5RyCpLHhrMqk-tIYWW-2" value="&lt;font style=&quot;font-size: 12px;&quot;&gt;Solar panel 18V 5W&lt;/font&gt;" style="rounded=0;whiteSpace=wrap;html=1;" vertex="1" parent="1">
          <mxGeometry x="580" y="190" width="80" height="80" as="geometry" />
        </mxCell>
        <mxCell id="xp5RyCpLHhrMqk-tIYWW-35" value="Analog" style="edgeStyle=orthogonalEdgeStyle;rounded=0;orthogonalLoop=1;jettySize=auto;html=1;entryX=0;entryY=0.5;entryDx=0;entryDy=0;fillColor=#dae8fc;strokeColor=#6c8ebf;" edge="1" parent="1" source="xp5RyCpLHhrMqk-tIYWW-5" target="xp5RyCpLHhrMqk-tIYWW-32">
          <mxGeometry y="10" relative="1" as="geometry">
            <mxPoint x="130" y="310" as="targetPoint" />
            <mxPoint as="offset" />
          </mxGeometry>
        </mxCell>
        <mxCell id="xp5RyCpLHhrMqk-tIYWW-5" value="&lt;font style=&quot;font-size: 13px;&quot;&gt;Methane&amp;nbsp;&lt;/font&gt;&lt;div&gt;&lt;font style=&quot;font-size: 13px;&quot;&gt;TGS2600&lt;/font&gt;&lt;/div&gt;" style="whiteSpace=wrap;html=1;rounded=0;fontSize=11;" vertex="1" parent="1">
          <mxGeometry x="-40" y="330" width="160" height="80" as="geometry" />
        </mxCell>
        <mxCell id="xp5RyCpLHhrMqk-tIYWW-6" value="&lt;font style=&quot;font-size: 13px;&quot;&gt;STMicroprocessor&lt;/font&gt;&lt;div&gt;&lt;font style=&quot;font-size: 13px;&quot;&gt;STM32L431CCT6&lt;/font&gt;&lt;/div&gt;" style="whiteSpace=wrap;html=1;rounded=0;fontSize=11;" vertex="1" parent="1">
          <mxGeometry x="370" y="190" width="120" height="80" as="geometry" />
        </mxCell>
        <mxCell id="xp5RyCpLHhrMqk-tIYWW-7" value="&lt;div&gt;&lt;span style=&quot;font-size: 15px;&quot;&gt;LoRa&lt;/span&gt;&lt;/div&gt;&lt;div&gt;&lt;span style=&quot;font-size: 15px;&quot;&gt;AS32&lt;/span&gt;&lt;/div&gt;" style="whiteSpace=wrap;html=1;rounded=0;" vertex="1" parent="1">
          <mxGeometry x="370" y="350" width="120" height="80" as="geometry" />
        </mxCell>
        <mxCell id="xp5RyCpLHhrMqk-tIYWW-8" value="&lt;font style=&quot;font-size: 13px;&quot;&gt;Temperature and Humidity&lt;/font&gt;&lt;div style=&quot;&quot;&gt;&lt;span style=&quot;font-size: 13px;&quot;&gt;DHT22&lt;/span&gt;&lt;/div&gt;" style="whiteSpace=wrap;html=1;rounded=0;fontSize=11;" vertex="1" parent="1">
          <mxGeometry x="-40" y="190" width="160" height="80" as="geometry" />
        </mxCell>
        <mxCell id="xp5RyCpLHhrMqk-tIYWW-9" value="" style="endArrow=none;dashed=1;html=1;dashPattern=1 3;strokeWidth=2;rounded=0;" edge="1" parent="1">
          <mxGeometry width="50" height="50" relative="1" as="geometry">
            <mxPoint x="-60" y="170" as="sourcePoint" />
            <mxPoint x="-60" y="170" as="targetPoint" />
            <Array as="points">
              <mxPoint x="290" y="170" />
              <mxPoint x="290" y="450" />
              <mxPoint x="-60" y="450" />
            </Array>
          </mxGeometry>
        </mxCell>
        <mxCell id="xp5RyCpLHhrMqk-tIYWW-10" value="&lt;font style=&quot;font-size: 15px;&quot;&gt;SENSOR BLOCK&lt;/font&gt;" style="edgeLabel;html=1;align=center;verticalAlign=middle;resizable=0;points=[];" vertex="1" connectable="0" parent="xp5RyCpLHhrMqk-tIYWW-9">
          <mxGeometry x="-0.8436" y="-1" relative="1" as="geometry">
            <mxPoint x="82" y="-26" as="offset" />
          </mxGeometry>
        </mxCell>
        <mxCell id="xp5RyCpLHhrMqk-tIYWW-11" value="&lt;div style=&quot;text-align: center;&quot;&gt;&lt;span style=&quot;background-color: initial; font-size: 15px;&quot;&gt;PROCESSING BLOCK&lt;/span&gt;&lt;/div&gt;" style="text;whiteSpace=wrap;html=1;" vertex="1" parent="1">
          <mxGeometry x="349" y="130" width="181" height="30" as="geometry" />
        </mxCell>
        <mxCell id="xp5RyCpLHhrMqk-tIYWW-12" value="&lt;div style=&quot;text-align: center;&quot;&gt;&lt;span style=&quot;background-color: initial; font-size: 15px;&quot;&gt;COMMUNICATION BLOCK&lt;/span&gt;&lt;/div&gt;" style="text;whiteSpace=wrap;html=1;" vertex="1" parent="1">
          <mxGeometry x="334" y="450" width="211" height="40" as="geometry" />
        </mxCell>
        <mxCell id="xp5RyCpLHhrMqk-tIYWW-13" value="" style="endArrow=none;dashed=1;html=1;dashPattern=1 3;strokeWidth=2;rounded=0;" edge="1" parent="1">
          <mxGeometry width="50" height="50" relative="1" as="geometry">
            <mxPoint x="330" y="170" as="sourcePoint" />
            <mxPoint x="330" y="170" as="targetPoint" />
            <Array as="points">
              <mxPoint x="530" y="170" />
              <mxPoint x="530" y="290" />
              <mxPoint x="330" y="290" />
            </Array>
          </mxGeometry>
        </mxCell>
        <mxCell id="xp5RyCpLHhrMqk-tIYWW-14" value="" style="endArrow=none;dashed=1;html=1;dashPattern=1 3;strokeWidth=2;rounded=0;" edge="1" parent="1">
          <mxGeometry width="50" height="50" relative="1" as="geometry">
            <mxPoint x="330" y="330" as="sourcePoint" />
            <mxPoint x="330" y="330" as="targetPoint" />
            <Array as="points">
              <mxPoint x="530" y="330" />
              <mxPoint x="530" y="450" />
              <mxPoint x="330" y="450" />
            </Array>
          </mxGeometry>
        </mxCell>
        <mxCell id="xp5RyCpLHhrMqk-tIYWW-15" value="" style="endArrow=none;dashed=1;html=1;dashPattern=1 3;strokeWidth=2;rounded=0;" edge="1" parent="1">
          <mxGeometry width="50" height="50" relative="1" as="geometry">
            <mxPoint x="570" y="170" as="sourcePoint" />
            <mxPoint x="570" y="170" as="targetPoint" />
            <Array as="points">
              <mxPoint x="770" y="170" />
              <mxPoint x="770" y="450" />
              <mxPoint x="570" y="450" />
            </Array>
          </mxGeometry>
        </mxCell>
        <mxCell id="xp5RyCpLHhrMqk-tIYWW-16" value="&lt;span style=&quot;color: rgb(0, 0, 0); font-family: Helvetica; font-size: 15px; font-style: normal; font-variant-ligatures: normal; font-variant-caps: normal; font-weight: 400; letter-spacing: normal; orphans: 2; text-align: center; text-indent: 0px; text-transform: none; widows: 2; word-spacing: 0px; -webkit-text-stroke-width: 0px; white-space: normal; background-color: rgb(251, 251, 251); text-decoration-thickness: initial; text-decoration-style: initial; text-decoration-color: initial; display: inline !important; float: none;&quot;&gt;POWER SOURCE BLOCK&lt;/span&gt;" style="text;whiteSpace=wrap;html=1;" vertex="1" parent="1">
          <mxGeometry x="570" y="130" width="190" height="40" as="geometry" />
        </mxCell>
        <mxCell id="xp5RyCpLHhrMqk-tIYWW-17" value="" style="edgeStyle=orthogonalEdgeStyle;rounded=0;orthogonalLoop=1;jettySize=auto;html=1;entryX=0.75;entryY=0;entryDx=0;entryDy=0;strokeColor=#FF0000;" edge="1" parent="1" source="xp5RyCpLHhrMqk-tIYWW-18" target="xp5RyCpLHhrMqk-tIYWW-26">
          <mxGeometry relative="1" as="geometry" />
        </mxCell>
        <mxCell id="xp5RyCpLHhrMqk-tIYWW-18" value="Lithium-ion batteries" style="rounded=0;whiteSpace=wrap;html=1;" vertex="1" parent="1">
          <mxGeometry x="680" y="190" width="80" height="80" as="geometry" />
        </mxCell>
        <mxCell id="xp5RyCpLHhrMqk-tIYWW-19" value="" style="edgeStyle=orthogonalEdgeStyle;rounded=0;orthogonalLoop=1;jettySize=auto;html=1;exitX=0;exitY=0.75;exitDx=0;exitDy=0;strokeColor=#FF0000;" edge="1" parent="1" source="xp5RyCpLHhrMqk-tIYWW-26" target="xp5RyCpLHhrMqk-tIYWW-7">
          <mxGeometry relative="1" as="geometry" />
        </mxCell>
        <mxCell id="xp5RyCpLHhrMqk-tIYWW-20" value="5V" style="edgeLabel;html=1;align=center;verticalAlign=middle;resizable=0;points=[];fontSize=13;" vertex="1" connectable="0" parent="xp5RyCpLHhrMqk-tIYWW-19">
          <mxGeometry x="-0.3667" y="-2" relative="1" as="geometry">
            <mxPoint x="-8" y="12" as="offset" />
          </mxGeometry>
        </mxCell>
        <mxCell id="xp5RyCpLHhrMqk-tIYWW-21" style="edgeStyle=orthogonalEdgeStyle;rounded=0;orthogonalLoop=1;jettySize=auto;html=1;entryX=1;entryY=0.5;entryDx=0;entryDy=0;strokeColor=#FF0000;" edge="1" parent="1" source="xp5RyCpLHhrMqk-tIYWW-26" target="xp5RyCpLHhrMqk-tIYWW-6">
          <mxGeometry relative="1" as="geometry" />
        </mxCell>
        <mxCell id="xp5RyCpLHhrMqk-tIYWW-22" value="3.3V" style="edgeLabel;html=1;align=center;verticalAlign=middle;resizable=0;points=[];fontSize=13;" vertex="1" connectable="0" parent="xp5RyCpLHhrMqk-tIYWW-21">
          <mxGeometry x="-0.0533" y="-1" relative="1" as="geometry">
            <mxPoint x="-21" as="offset" />
          </mxGeometry>
        </mxCell>
        <mxCell id="xp5RyCpLHhrMqk-tIYWW-23" style="edgeStyle=orthogonalEdgeStyle;rounded=0;orthogonalLoop=1;jettySize=auto;html=1;entryX=0.5;entryY=1;entryDx=0;entryDy=0;strokeColor=#FF0000;" edge="1" parent="1" source="xp5RyCpLHhrMqk-tIYWW-26" target="xp5RyCpLHhrMqk-tIYWW-5">
          <mxGeometry relative="1" as="geometry">
            <Array as="points">
              <mxPoint x="670" y="440" />
              <mxPoint x="40" y="440" />
            </Array>
          </mxGeometry>
        </mxCell>
        <mxCell id="xp5RyCpLHhrMqk-tIYWW-24" value="&lt;font style=&quot;font-size: 13px;&quot;&gt;3.3V&lt;/font&gt;" style="edgeLabel;html=1;align=center;verticalAlign=middle;resizable=0;points=[];" vertex="1" connectable="0" parent="xp5RyCpLHhrMqk-tIYWW-23">
          <mxGeometry x="-0.4519" y="-2" relative="1" as="geometry">
            <mxPoint x="-490" y="-128" as="offset" />
          </mxGeometry>
        </mxCell>
        <mxCell id="xp5RyCpLHhrMqk-tIYWW-25" style="edgeStyle=orthogonalEdgeStyle;rounded=0;orthogonalLoop=1;jettySize=auto;html=1;entryX=0;entryY=0.5;entryDx=0;entryDy=0;strokeColor=#FF0000;" edge="1" parent="1" source="xp5RyCpLHhrMqk-tIYWW-26" target="xp5RyCpLHhrMqk-tIYWW-8">
          <mxGeometry relative="1" as="geometry">
            <Array as="points">
              <mxPoint x="670" y="440" />
              <mxPoint x="-50" y="440" />
              <mxPoint x="-50" y="250" />
            </Array>
          </mxGeometry>
        </mxCell>
        <mxCell id="xp5RyCpLHhrMqk-tIYWW-43" value="5V" style="edgeStyle=orthogonalEdgeStyle;rounded=0;orthogonalLoop=1;jettySize=auto;html=1;entryX=0.5;entryY=1;entryDx=0;entryDy=0;fillColor=#f8cecc;strokeColor=#ff0800;" edge="1" parent="1" source="xp5RyCpLHhrMqk-tIYWW-26" target="xp5RyCpLHhrMqk-tIYWW-32">
          <mxGeometry x="0.8218" y="-10" relative="1" as="geometry">
            <Array as="points">
              <mxPoint x="670" y="440" />
              <mxPoint x="225" y="440" />
            </Array>
            <mxPoint as="offset" />
          </mxGeometry>
        </mxCell>
        <mxCell id="xp5RyCpLHhrMqk-tIYWW-26" value="&lt;span style=&quot;font-size: 15px;&quot;&gt;&amp;nbsp;Battery Monitoring IC LTC4162&lt;/span&gt;" style="whiteSpace=wrap;html=1;rounded=0;" vertex="1" parent="1">
          <mxGeometry x="590" y="330" width="160" height="80" as="geometry" />
        </mxCell>
        <mxCell id="xp5RyCpLHhrMqk-tIYWW-27" value="" style="endArrow=classic;startArrow=classic;html=1;rounded=0;entryX=0.5;entryY=1;entryDx=0;entryDy=0;exitX=0.5;exitY=0;exitDx=0;exitDy=0;fillColor=#dae8fc;strokeColor=#6c8ebf;" edge="1" parent="1" source="xp5RyCpLHhrMqk-tIYWW-7" target="xp5RyCpLHhrMqk-tIYWW-6">
          <mxGeometry width="50" height="50" relative="1" as="geometry">
            <mxPoint x="400" y="350" as="sourcePoint" />
            <mxPoint x="450" y="300" as="targetPoint" />
          </mxGeometry>
        </mxCell>
        <mxCell id="xp5RyCpLHhrMqk-tIYWW-28" value="&lt;font style=&quot;font-size: 13px;&quot;&gt;UART&lt;/font&gt;" style="edgeLabel;html=1;align=center;verticalAlign=middle;resizable=0;points=[];" vertex="1" connectable="0" parent="xp5RyCpLHhrMqk-tIYWW-27">
          <mxGeometry x="0.17" relative="1" as="geometry">
            <mxPoint x="20" y="7" as="offset" />
          </mxGeometry>
        </mxCell>
        <mxCell id="xp5RyCpLHhrMqk-tIYWW-29" value="" style="endArrow=classic;startArrow=classic;html=1;rounded=0;entryX=0;entryY=0.5;entryDx=0;entryDy=0;fillColor=#dae8fc;strokeColor=#6c8ebf;" edge="1" parent="1" target="xp5RyCpLHhrMqk-tIYWW-6">
          <mxGeometry width="50" height="50" relative="1" as="geometry">
            <mxPoint x="120" y="230" as="sourcePoint" />
            <mxPoint x="440" y="280" as="targetPoint" />
            <Array as="points">
              <mxPoint x="120" y="230" />
            </Array>
          </mxGeometry>
        </mxCell>
        <mxCell id="xp5RyCpLHhrMqk-tIYWW-30" value="One wire" style="edgeLabel;html=1;align=center;verticalAlign=middle;resizable=0;points=[];" vertex="1" connectable="0" parent="xp5RyCpLHhrMqk-tIYWW-29">
          <mxGeometry x="0.17" relative="1" as="geometry">
            <mxPoint x="-19" y="-10" as="offset" />
          </mxGeometry>
        </mxCell>
        <mxCell id="xp5RyCpLHhrMqk-tIYWW-31" value="&lt;font style=&quot;font-size: 13px;&quot;&gt;5V&lt;/font&gt;" style="edgeLabel;html=1;align=center;verticalAlign=middle;resizable=0;points=[];" vertex="1" connectable="0" parent="1">
          <mxGeometry x="-20" y="310" as="geometry">
            <mxPoint x="83" y="118" as="offset" />
          </mxGeometry>
        </mxCell>
        <mxCell id="xp5RyCpLHhrMqk-tIYWW-41" style="edgeStyle=orthogonalEdgeStyle;rounded=0;orthogonalLoop=1;jettySize=auto;html=1;entryX=0;entryY=0.75;entryDx=0;entryDy=0;fillColor=#dae8fc;strokeColor=#6c8ebf;" edge="1" parent="1" source="xp5RyCpLHhrMqk-tIYWW-32" target="xp5RyCpLHhrMqk-tIYWW-6">
          <mxGeometry relative="1" as="geometry" />
        </mxCell>
        <mxCell id="xp5RyCpLHhrMqk-tIYWW-42" value="SPI" style="edgeLabel;html=1;align=center;verticalAlign=middle;resizable=0;points=[];" vertex="1" connectable="0" parent="xp5RyCpLHhrMqk-tIYWW-41">
          <mxGeometry x="-0.0952" y="1" relative="1" as="geometry">
            <mxPoint x="15" y="-11" as="offset" />
          </mxGeometry>
        </mxCell>
        <mxCell id="xp5RyCpLHhrMqk-tIYWW-32" value="&lt;div&gt;&lt;font style=&quot;font-size: 13px;&quot;&gt;ADC 16Bit&lt;/font&gt;&lt;/div&gt;" style="whiteSpace=wrap;html=1;rounded=0;fontSize=11;" vertex="1" parent="1">
          <mxGeometry x="180" y="330" width="90" height="80" as="geometry" />
        </mxCell>
      </root>
    </mxGraphModel>
  </diagram>
</mxfile>
